<svg width="24" height="24" viewBox="0 0 256 256" fill="none" xmlns="http://www.w3.org/2000/svg">
  <!--
    Activity-bar variant of media/icon.svg. VS Code renders this through
    -webkit-mask in the theme's foreground colour, so only the alpha channel
    survives: a filled blob would mask to a solid lozenge with no letters.
    Hence the blob is stroked, not filled, and only the letters + dot are solid.
    Geometry is lifted from icon.svg — the silhouette outline from #base-green,
    the letter and dot outer boundaries from #black.
  -->
  <path d="M71.00 22.50 L86.00 22.50 L93.00 24.50 L104.00 30.50 L110.00 36.50 L114.00 36.50 L125.00 27.50 L134.00 25.50 L145.00 27.50 L157.00 36.50 L182.00 29.50 L200.00 30.50 L218.00 37.50 L236.50 54.00 L243.50 66.00 L247.50 80.00 L247.50 100.00 L244.50 111.00 L238.50 122.00 L244.50 137.00 L241.50 152.00 L247.50 165.00 L247.50 180.00 L242.50 192.00 L243.50 198.00 L237.00 204.50 L232.00 203.50 L223.00 208.50 L211.00 210.50 L206.50 196.00 L196.00 186.50 L184.00 183.50 L170.00 187.50 L161.50 196.00 L157.50 206.00 L158.50 218.00 L149.00 221.50 L137.00 221.50 L118.00 215.50 L110.00 225.50 L96.00 232.50 L83.00 232.50 L77.00 229.50 L71.00 229.50 L64.00 232.50 L48.00 232.50 L35.00 227.50 L26.50 221.00 L21.50 215.00 L15.50 202.00 L14.50 187.00 L17.50 175.00 L10.50 163.00 L7.50 152.00 L8.50 128.00 L15.50 113.00 L15.50 109.00 L11.50 105.00 L7.50 96.00 L7.50 84.00 L11.50 75.00 L19.00 67.50 L25.00 64.50 L35.00 63.50 L37.50 61.00 L39.50 49.00 L43.50 41.00 L50.50 33.00 L50.50 28.00 L52.00 26.50 L57.00 23.50 L63.00 25.50 Z" stroke="#56A63F" stroke-width="15" stroke-linejoin="round"/>
  <g fill="#56A63F" fill-rule="evenodd">
    <path d="M47.00 83.50 L53.00 83.50 L57.00 85.50 L59.50 88.00 L61.50 92.00 L62.50 97.00 L64.50 100.00 L65.50 105.00 L67.00 106.50 L67.50 104.00 L68.50 103.00 L68.50 101.00 L69.50 100.00 L69.50 98.00 L71.50 95.00 L72.50 90.00 L76.00 85.50 L80.00 83.50 L86.00 83.50 L87.00 84.50 L89.00 84.50 L93.50 89.00 L93.50 91.00 L94.50 92.00 L94.50 98.00 L92.50 101.00 L91.50 106.00 L89.50 109.00 L89.50 111.00 L87.50 114.00 L87.50 116.00 L83.50 124.00 L82.50 129.00 L78.50 137.00 L78.50 166.00 L75.00 171.50 L69.00 174.50 L64.00 174.50 L60.00 172.50 L56.50 169.00 L54.50 165.00 L54.50 136.00 L52.50 133.00 L52.50 131.00 L50.50 128.00 L50.50 126.00 L48.50 123.00 L48.50 121.00 L46.50 118.00 L46.50 116.00 L44.50 113.00 L43.50 108.00 L41.50 105.00 L41.50 103.00 L38.50 97.00 L38.50 93.00 L39.50 92.00 L39.50 90.00 L40.50 88.00 L43.00 85.50 Z"/>
    <path d="M114.00 80.50 L140.00 80.50 L144.00 82.50 L147.50 86.00 L148.50 88.00 L148.50 90.00 L149.50 91.00 L149.50 94.00 L148.50 95.00 L148.50 97.00 L147.50 99.00 L144.00 102.50 L140.00 104.50 L125.00 104.50 L124.50 105.00 L124.50 114.00 L125.00 114.50 L141.00 114.50 L145.00 116.50 L146.50 118.00 L149.50 124.00 L149.50 128.00 L148.50 129.00 L148.50 131.00 L147.50 133.00 L144.00 136.50 L142.00 137.50 L139.00 137.50 L138.00 138.50 L125.00 138.50 L124.50 139.00 L124.50 147.00 L125.00 147.50 L137.00 147.50 L138.00 148.50 L140.00 148.50 L145.50 154.00 L145.50 156.00 L146.50 157.00 L146.50 162.00 L145.50 163.00 L145.50 165.00 L143.50 167.00 L143.00 168.50 L142.00 168.50 L138.00 171.50 L113.00 171.50 L107.00 168.50 L103.50 165.00 L100.50 159.00 L100.50 93.00 L103.50 87.00 L106.00 84.50 Z"/>
    <path d="M178.00 80.50 L207.00 80.50 L211.00 82.50 L214.50 86.00 L215.50 88.00 L215.50 90.00 L216.50 91.00 L216.50 95.00 L214.50 99.00 L210.00 103.50 L208.00 103.50 L207.00 104.50 L181.00 104.50 L177.50 107.00 L177.50 111.00 L179.00 113.50 L181.00 113.50 L182.00 114.50 L194.00 114.50 L195.00 115.50 L200.00 116.50 L202.00 118.50 L206.00 120.50 L210.50 125.00 L210.50 126.00 L212.50 128.00 L214.50 132.00 L214.50 134.00 L215.50 135.00 L215.50 138.00 L216.50 139.00 L216.50 146.00 L215.50 147.00 L215.50 151.00 L214.50 152.00 L214.50 154.00 L211.50 158.00 L211.50 159.00 L207.00 164.50 L206.00 164.50 L203.00 167.50 L199.00 169.50 L197.00 169.50 L193.00 171.50 L162.00 171.50 L158.00 169.50 L155.50 167.00 L153.50 163.00 L153.50 156.00 L157.00 150.50 L163.00 147.50 L189.00 147.50 L191.00 146.50 L192.50 144.00 L192.50 142.00 L190.00 138.50 L181.00 138.50 L180.00 137.50 L175.00 137.50 L174.00 136.50 L172.00 136.50 L166.00 133.50 L163.00 130.50 L162.00 130.50 L161.50 129.00 L157.50 125.00 L154.50 119.00 L154.50 116.00 L153.50 115.00 L153.50 103.00 L159.50 91.00 L164.00 86.50 L165.00 86.50 L167.00 84.50 L171.00 82.50 L173.00 82.50 L174.00 81.50 L177.00 81.50 Z"/>
    <path d="M179.00 191.50 L173.00 194.50 L168.50 199.00 L168.50 200.00 L166.50 202.00 L166.50 204.00 L165.50 205.00 L165.50 209.00 L164.50 210.00 L165.50 212.00 L165.50 216.00 L167.50 220.00 L169.50 222.00 L169.50 223.00 L175.00 227.50 L177.00 228.50 L180.00 228.50 L181.00 229.50 L187.00 229.50 L188.00 228.50 L193.00 227.50 L195.00 225.50 L196.00 225.50 L200.50 220.00 L202.50 216.00 L202.50 211.00 L203.50 210.00 L202.50 209.00 L202.50 205.00 L199.50 199.00 L195.00 194.50 L189.00 191.50 Z"/>
  </g>
</svg>
