<?xml version="1.0" encoding="UTF-8"?>
<svg xmlns="http://www.w3.org/2000/svg" width="256" height="256" viewBox="0 0 256 256" role="img" aria-labelledby="title desc">
  <title id="title">YES Code logo</title>
  <desc id="desc">Vectorized YES logo with a green rounded background, black outlined white letters, and a small white circle.</desc>
  <g id="base-green" fill="#85d16f" fill-rule="evenodd">
    <path d="M71.00 22.50 L86.00 22.50 L93.00 24.50 L104.00 30.50 L110.00 36.50 L114.00 36.50 L125.00 27.50 L134.00 25.50 L145.00 27.50 L157.00 36.50 L182.00 29.50 L200.00 30.50 L218.00 37.50 L236.50 54.00 L243.50 66.00 L247.50 80.00 L247.50 100.00 L244.50 111.00 L238.50 122.00 L244.50 137.00 L241.50 152.00 L247.50 165.00 L247.50 180.00 L242.50 192.00 L243.50 198.00 L237.00 204.50 L232.00 203.50 L223.00 208.50 L211.00 210.50 L206.50 196.00 L196.00 186.50 L184.00 183.50 L170.00 187.50 L161.50 196.00 L157.50 206.00 L158.50 218.00 L149.00 221.50 L137.00 221.50 L118.00 215.50 L110.00 225.50 L96.00 232.50 L83.00 232.50 L77.00 229.50 L71.00 229.50 L64.00 232.50 L48.00 232.50 L35.00 227.50 L26.50 221.00 L21.50 215.00 L15.50 202.00 L14.50 187.00 L17.50 175.00 L10.50 163.00 L7.50 152.00 L8.50 128.00 L15.50 113.00 L15.50 109.00 L11.50 105.00 L7.50 96.00 L7.50 84.00 L11.50 75.00 L19.00 67.50 L25.00 64.50 L35.00 63.50 L37.50 61.00 L39.50 49.00 L43.50 41.00 L50.50 33.00 L50.50 28.00 L52.00 26.50 L57.00 23.50 L63.00 25.50 Z"/>
    <path d="M184.00 191.50 L195.00 195.50 L200.50 202.00 L202.50 208.00 L202.50 213.00 L199.50 220.00 L193.00 226.50 L188.00 228.50 L180.00 228.50 L175.00 226.50 L167.50 219.00 L165.50 213.00 L165.50 207.00 L169.50 199.00 L176.00 193.50 Z"/>
  </g>
  <g id="light-green" fill="#9bde88" fill-rule="evenodd">
    <path d="M136.00 26.50 L144.00 27.50 L158.00 37.50 L177.00 30.50 L198.00 30.50 L206.00 32.50 L219.00 38.50 L226.00 43.50 L233.50 51.00 L240.50 61.00 L244.50 70.00 L247.50 82.00 L247.50 97.00 L245.50 107.00 L241.50 117.00 L238.50 121.00 L238.50 124.00 L243.50 134.00 L243.50 144.00 L241.50 148.00 L241.50 153.00 L244.50 157.00 L247.50 167.00 L247.50 178.00 L245.50 186.00 L241.50 193.00 L243.50 198.00 L237.00 204.50 L235.00 202.50 L233.00 202.50 L222.00 208.50 L211.00 209.50 L207.50 197.00 L200.00 188.50 L192.00 184.50 L180.00 183.50 L168.00 188.50 L160.50 197.00 L157.50 204.00 L158.00 218.50 L152.00 220.50 L141.00 221.50 L132.50 209.00 L123.50 189.00 L118.50 173.00 L139.00 171.50 L145.50 166.00 L147.50 160.00 L145.50 153.00 L141.00 148.50 L139.00 147.50 L125.00 147.50 L124.50 139.00 L141.00 138.50 L146.00 135.50 L149.50 130.00 L149.50 122.00 L143.00 114.50 L125.00 113.50 L124.50 106.00 L138.00 105.50 L144.00 103.50 L149.50 96.00 L149.50 89.00 L147.50 85.00 L142.00 80.50 L136.00 79.50 L118.00 79.50 L116.00 80.50 L115.50 79.00 L124.50 49.00 Z"/>
    <path d="M183.00 79.50 L172.00 81.50 L163.00 86.50 L156.50 94.00 L152.50 105.00 L153.50 118.00 L157.50 126.00 L165.00 133.50 L176.00 138.50 L189.00 138.50 L191.50 141.00 L191.50 145.00 L188.00 147.50 L161.00 147.50 L154.50 153.00 L152.50 157.00 L153.50 165.00 L157.00 169.50 L164.00 172.50 L190.00 172.50 L198.00 170.50 L204.00 167.50 L212.50 159.00 L216.50 149.00 L216.50 136.00 L210.50 124.00 L199.00 115.50 L192.00 113.50 L180.00 113.50 L177.50 110.00 L180.00 105.50 L205.00 105.50 L211.00 103.50 L216.50 97.00 L216.50 88.00 L209.00 80.50 Z"/>
    <path d="M115.00 88.50 L139.00 88.50 L141.50 92.00 L141.50 94.00 L139.00 96.50 L119.00 96.50 L116.50 99.00 L116.50 120.00 L118.00 121.50 L137.00 121.50 L141.50 125.00 L141.50 127.00 L138.00 130.50 L118.00 130.50 L116.50 132.00 L116.50 153.00 L119.00 155.50 L136.00 155.50 L138.50 158.00 L138.50 161.00 L136.00 163.50 L115.00 163.50 L108.50 158.00 L108.50 95.00 Z"/>
    <path d="M178.00 88.50 L206.00 88.50 L208.50 92.00 L208.50 94.00 L206.00 96.50 L180.00 96.50 L177.00 97.50 L170.50 103.00 L169.50 106.00 L169.50 113.00 L174.00 119.50 L177.00 121.50 L188.00 121.50 L196.00 123.50 L205.50 132.00 L207.50 136.00 L208.50 146.00 L205.50 154.00 L199.00 160.50 L192.00 163.50 L164.00 163.50 L161.50 161.00 L161.50 158.00 L164.00 155.50 L191.00 155.50 L198.50 150.00 L200.50 145.00 L199.50 138.00 L194.00 131.50 L192.00 130.50 L180.00 130.50 L173.00 128.50 L164.50 121.00 L161.50 115.00 L162.50 101.00 L171.00 91.50 Z"/>
    <path d="M49.00 91.50 L51.00 91.50 L53.50 94.00 L62.50 120.00 L64.00 121.50 L69.00 121.50 L70.50 120.00 L79.50 94.00 L82.00 91.50 L85.00 91.50 L86.50 93.00 L84.50 102.00 L70.50 136.00 L70.50 164.00 L68.00 166.50 L65.00 166.50 L62.50 164.00 L62.50 135.00 L46.50 96.00 L46.50 94.00 Z"/>
    <path d="M184.00 191.50 L195.00 195.50 L200.50 202.00 L202.50 208.00 L202.50 213.00 L199.50 220.00 L193.00 226.50 L188.00 228.50 L180.00 228.50 L175.00 226.50 L167.50 219.00 L165.50 213.00 L165.50 207.00 L169.50 199.00 L176.00 193.50 Z"/>
  </g>
  <g id="black" fill="#000000" fill-rule="evenodd">
    <path d="M71.00 14.50 L85.00 14.50 L86.00 15.50 L90.00 15.50 L91.00 16.50 L94.00 16.50 L97.00 18.50 L99.00 18.50 L103.00 20.50 L112.00 27.50 L118.00 22.50 L122.00 20.50 L127.00 19.50 L128.00 18.50 L142.00 18.50 L143.00 19.50 L145.00 19.50 L146.00 20.50 L148.00 20.50 L152.00 22.50 L159.00 28.50 L165.00 25.50 L167.00 25.50 L168.00 24.50 L171.00 24.50 L172.00 23.50 L175.00 23.50 L176.00 22.50 L186.00 22.50 L187.00 21.50 L189.00 21.50 L190.00 22.50 L199.00 22.50 L200.00 23.50 L204.00 23.50 L205.00 24.50 L207.00 24.50 L208.00 25.50 L213.00 26.50 L223.00 31.50 L229.00 36.50 L230.00 36.50 L241.50 48.00 L241.50 49.00 L244.50 52.00 L245.50 55.00 L247.50 57.00 L250.50 63.00 L250.50 65.00 L252.50 68.00 L253.50 75.00 L254.50 76.00 L254.50 80.00 L255.50 81.00 L255.50 99.00 L254.50 100.00 L254.50 104.00 L253.50 105.00 L253.50 108.00 L252.50 109.00 L251.50 114.00 L247.50 122.00 L247.50 124.00 L251.50 132.00 L251.50 145.00 L250.50 146.00 L250.50 149.00 L249.50 150.00 L252.50 155.00 L252.50 157.00 L254.50 161.00 L254.50 165.00 L255.50 166.00 L255.50 179.00 L254.50 180.00 L254.50 184.00 L253.50 185.00 L252.50 190.00 L249.50 196.00 L248.00 197.50 L244.00 197.50 L242.50 196.00 L242.50 192.00 L246.50 185.00 L246.50 182.00 L247.50 181.00 L247.50 176.00 L248.50 175.00 L248.50 170.00 L247.50 169.00 L247.50 164.00 L246.50 163.00 L245.50 158.00 L241.50 151.00 L241.50 149.00 L243.50 146.00 L243.50 143.00 L244.50 142.00 L244.50 136.00 L243.50 135.00 L243.50 132.00 L242.50 131.00 L242.50 129.00 L239.50 125.00 L239.50 121.00 L243.50 114.00 L243.50 112.00 L244.50 111.00 L244.50 109.00 L246.50 105.00 L246.50 102.00 L247.50 101.00 L247.50 94.00 L248.50 93.00 L248.50 86.00 L247.50 85.00 L247.50 79.00 L246.50 78.00 L246.50 74.00 L243.50 68.00 L243.50 66.00 L240.50 60.00 L238.50 58.00 L236.50 54.00 L232.50 50.00 L232.50 49.00 L228.00 44.50 L227.00 44.50 L220.00 38.50 L210.00 33.50 L208.00 33.50 L205.00 31.50 L202.00 31.50 L201.00 30.50 L196.00 30.50 L195.00 29.50 L180.00 29.50 L179.00 30.50 L175.00 30.50 L174.00 31.50 L171.00 31.50 L170.00 32.50 L165.00 33.50 L160.00 36.50 L157.00 36.50 L152.00 31.50 L151.00 31.50 L149.00 29.50 L143.00 26.50 L139.00 26.50 L138.00 25.50 L132.00 25.50 L131.00 26.50 L127.00 26.50 L121.00 29.50 L119.00 31.50 L118.00 31.50 L113.00 36.50 L110.00 36.50 L103.00 29.50 L102.00 29.50 L100.00 27.50 L94.00 24.50 L92.00 24.50 L91.00 23.50 L88.00 23.50 L87.00 22.50 L80.00 22.50 L78.00 21.50 L77.00 22.50 L70.00 22.50 L69.00 23.50 L66.00 23.50 L62.00 25.50 L60.00 24.50 L58.50 23.00 L58.50 20.00 L61.00 17.50 L63.00 16.50 L66.00 16.50 L67.00 15.50 L70.00 15.50 Z"/>
    <path d="M45.00 27.50 L49.00 27.50 L50.50 29.00 L50.50 33.00 L45.50 38.00 L45.50 39.00 L43.50 41.00 L43.50 42.00 L40.50 46.00 L40.50 48.00 L38.50 51.00 L38.50 54.00 L37.50 55.00 L37.50 60.00 L36.50 62.00 L35.00 63.50 L28.00 63.50 L27.00 64.50 L22.00 65.50 L20.00 67.50 L16.00 69.50 L10.50 76.00 L8.50 80.00 L8.50 82.00 L7.50 83.00 L7.50 87.00 L6.50 88.00 L6.50 92.00 L7.50 93.00 L7.50 97.00 L8.50 98.00 L8.50 100.00 L10.50 104.00 L14.50 108.00 L15.50 110.00 L15.50 113.00 L12.50 117.00 L12.50 119.00 L10.50 122.00 L10.50 124.00 L8.50 128.00 L8.50 131.00 L7.50 132.00 L7.50 138.00 L6.50 139.00 L6.50 145.00 L7.50 146.00 L7.50 153.00 L8.50 154.00 L9.50 161.00 L11.50 164.00 L11.50 166.00 L13.50 170.00 L15.50 172.00 L17.50 176.00 L16.50 177.00 L16.50 180.00 L15.50 181.00 L15.50 184.00 L14.50 185.00 L14.50 198.00 L15.50 199.00 L15.50 202.00 L16.50 203.00 L16.50 205.00 L17.50 206.00 L17.50 208.00 L19.50 212.00 L24.50 218.00 L24.50 219.00 L29.00 223.50 L30.00 223.50 L33.00 226.50 L41.00 230.50 L43.00 230.50 L47.00 232.50 L54.00 232.50 L55.00 233.50 L57.00 233.50 L58.00 232.50 L65.00 232.50 L66.00 231.50 L68.00 231.50 L72.00 229.50 L76.00 229.50 L82.00 232.50 L88.00 232.50 L89.00 233.50 L91.00 233.50 L92.00 232.50 L97.00 232.50 L98.00 231.50 L103.00 230.50 L105.00 228.50 L109.00 226.50 L113.50 222.00 L115.50 218.00 L118.00 215.50 L121.00 215.50 L128.00 219.50 L130.00 219.50 L131.00 220.50 L134.00 220.50 L135.00 221.50 L150.00 221.50 L151.00 220.50 L154.00 220.50 L155.00 219.50 L157.00 219.50 L158.50 218.00 L158.50 214.00 L157.50 213.00 L157.50 208.00 L158.50 207.00 L158.50 203.00 L159.50 202.00 L159.50 200.00 L160.50 198.00 L162.50 196.00 L162.50 195.00 L169.00 188.50 L175.00 185.50 L177.00 185.50 L178.00 184.50 L190.00 184.50 L191.00 185.50 L193.00 185.50 L199.00 188.50 L205.50 195.00 L205.50 196.00 L207.50 198.00 L208.50 200.00 L208.50 202.00 L209.50 203.00 L209.50 207.00 L210.50 208.00 L211.00 210.50 L216.00 210.50 L217.00 209.50 L220.00 209.50 L221.00 208.50 L226.00 207.50 L232.00 203.50 L235.00 203.50 L237.00 204.50 L237.50 208.00 L234.00 211.50 L226.00 215.50 L224.00 215.50 L223.00 216.50 L220.00 216.50 L219.00 217.50 L210.00 217.50 L208.50 219.00 L208.50 221.00 L205.50 225.00 L205.50 226.00 L199.00 232.50 L193.00 235.50 L191.00 235.50 L190.00 236.50 L178.00 236.50 L177.00 235.50 L175.00 235.50 L169.00 232.50 L162.00 225.50 L160.00 226.50 L158.00 226.50 L157.00 227.50 L154.00 227.50 L153.00 228.50 L148.00 228.50 L147.00 229.50 L139.00 229.50 L138.00 228.50 L132.00 228.50 L131.00 227.50 L129.00 227.50 L128.00 226.50 L126.00 226.50 L125.00 225.50 L123.00 225.50 L121.00 224.50 L111.00 234.50 L103.00 238.50 L101.00 238.50 L100.00 239.50 L97.00 239.50 L96.00 240.50 L84.00 240.50 L83.00 239.50 L80.00 239.50 L76.00 237.50 L72.00 237.50 L71.00 238.50 L69.00 238.50 L68.00 239.50 L64.00 239.50 L63.00 240.50 L49.00 240.50 L48.00 239.50 L44.00 239.50 L43.00 238.50 L38.00 237.50 L30.00 233.50 L28.00 231.50 L27.00 231.50 L16.50 221.00 L16.50 220.00 L12.50 215.00 L10.50 211.00 L9.50 206.00 L8.50 205.00 L8.50 202.00 L7.50 201.00 L7.50 194.00 L6.50 193.00 L6.50 189.00 L7.50 188.00 L7.50 182.00 L8.50 181.00 L8.50 178.00 L9.50 177.00 L3.50 166.00 L3.50 164.00 L1.50 160.00 L1.50 157.00 L0.50 156.00 L0.50 152.00 L-0.50 151.00 L-0.50 134.00 L0.50 133.00 L0.50 129.00 L1.50 128.00 L1.50 125.00 L2.50 124.00 L3.50 119.00 L7.50 112.00 L4.50 108.00 L4.50 107.00 L2.50 105.00 L2.50 103.00 L0.50 100.00 L0.50 97.00 L-0.50 96.00 L-0.50 84.00 L0.50 83.00 L0.50 80.00 L1.50 79.00 L1.50 77.00 L3.50 73.00 L5.50 71.00 L5.50 70.00 L14.00 61.50 L22.00 57.50 L24.00 57.50 L25.00 56.50 L29.00 56.50 L30.50 55.00 L31.50 48.00 L34.50 43.00 L34.50 41.00 L36.50 39.00 L37.50 36.00 L40.50 33.00 L40.50 32.00 Z"/>
    <path d="M114.00 80.50 L140.00 80.50 L144.00 82.50 L147.50 86.00 L148.50 88.00 L148.50 90.00 L149.50 91.00 L149.50 94.00 L148.50 95.00 L148.50 97.00 L147.50 99.00 L144.00 102.50 L140.00 104.50 L125.00 104.50 L124.50 105.00 L124.50 114.00 L125.00 114.50 L141.00 114.50 L145.00 116.50 L146.50 118.00 L149.50 124.00 L149.50 128.00 L148.50 129.00 L148.50 131.00 L147.50 133.00 L144.00 136.50 L142.00 137.50 L139.00 137.50 L138.00 138.50 L125.00 138.50 L124.50 139.00 L124.50 147.00 L125.00 147.50 L137.00 147.50 L138.00 148.50 L140.00 148.50 L145.50 154.00 L145.50 156.00 L146.50 157.00 L146.50 162.00 L145.50 163.00 L145.50 165.00 L143.50 167.00 L143.00 168.50 L142.00 168.50 L138.00 171.50 L113.00 171.50 L107.00 168.50 L103.50 165.00 L100.50 159.00 L100.50 93.00 L103.50 87.00 L106.00 84.50 Z"/>
    <path d="M178.00 80.50 L207.00 80.50 L211.00 82.50 L214.50 86.00 L215.50 88.00 L215.50 90.00 L216.50 91.00 L216.50 95.00 L214.50 99.00 L210.00 103.50 L208.00 103.50 L207.00 104.50 L181.00 104.50 L177.50 107.00 L177.50 111.00 L179.00 113.50 L181.00 113.50 L182.00 114.50 L194.00 114.50 L195.00 115.50 L200.00 116.50 L202.00 118.50 L206.00 120.50 L210.50 125.00 L210.50 126.00 L212.50 128.00 L214.50 132.00 L214.50 134.00 L215.50 135.00 L215.50 138.00 L216.50 139.00 L216.50 146.00 L215.50 147.00 L215.50 151.00 L214.50 152.00 L214.50 154.00 L211.50 158.00 L211.50 159.00 L207.00 164.50 L206.00 164.50 L203.00 167.50 L199.00 169.50 L197.00 169.50 L193.00 171.50 L162.00 171.50 L158.00 169.50 L155.50 167.00 L153.50 163.00 L153.50 156.00 L157.00 150.50 L163.00 147.50 L189.00 147.50 L191.00 146.50 L192.50 144.00 L192.50 142.00 L190.00 138.50 L181.00 138.50 L180.00 137.50 L175.00 137.50 L174.00 136.50 L172.00 136.50 L166.00 133.50 L163.00 130.50 L162.00 130.50 L161.50 129.00 L157.50 125.00 L154.50 119.00 L154.50 116.00 L153.50 115.00 L153.50 103.00 L159.50 91.00 L164.00 86.50 L165.00 86.50 L167.00 84.50 L171.00 82.50 L173.00 82.50 L174.00 81.50 L177.00 81.50 Z"/>
    <path d="M47.00 83.50 L53.00 83.50 L57.00 85.50 L59.50 88.00 L61.50 92.00 L62.50 97.00 L64.50 100.00 L65.50 105.00 L67.00 106.50 L67.50 104.00 L68.50 103.00 L68.50 101.00 L69.50 100.00 L69.50 98.00 L71.50 95.00 L72.50 90.00 L76.00 85.50 L80.00 83.50 L86.00 83.50 L87.00 84.50 L89.00 84.50 L93.50 89.00 L93.50 91.00 L94.50 92.00 L94.50 98.00 L92.50 101.00 L91.50 106.00 L89.50 109.00 L89.50 111.00 L87.50 114.00 L87.50 116.00 L83.50 124.00 L82.50 129.00 L78.50 137.00 L78.50 166.00 L75.00 171.50 L69.00 174.50 L64.00 174.50 L60.00 172.50 L56.50 169.00 L54.50 165.00 L54.50 136.00 L52.50 133.00 L52.50 131.00 L50.50 128.00 L50.50 126.00 L48.50 123.00 L48.50 121.00 L46.50 118.00 L46.50 116.00 L44.50 113.00 L43.50 108.00 L41.50 105.00 L41.50 103.00 L38.50 97.00 L38.50 93.00 L39.50 92.00 L39.50 90.00 L40.50 88.00 L43.00 85.50 Z"/>
    <path d="M116.00 87.50 L115.00 88.50 L113.00 88.50 L108.50 93.00 L107.50 95.00 L107.50 157.00 L109.50 161.00 L111.00 162.50 L115.00 164.50 L136.00 164.50 L139.50 161.00 L139.50 159.00 L137.00 155.50 L135.00 154.50 L119.00 154.50 L117.50 153.00 L116.50 151.00 L116.50 135.00 L120.00 130.50 L140.00 130.50 L141.50 129.00 L141.50 127.00 L142.50 126.00 L139.00 121.50 L120.00 121.50 L118.00 120.50 L116.50 118.00 L116.50 101.00 L119.00 97.50 L139.00 97.50 L141.50 95.00 L142.50 92.00 L141.50 90.00 L138.00 87.50 Z"/>
    <path d="M179.00 87.50 L178.00 88.50 L175.00 88.50 L171.00 90.50 L169.00 92.50 L168.00 92.50 L163.50 98.00 L161.50 102.00 L161.50 104.00 L160.50 105.00 L160.50 114.00 L161.50 115.00 L161.50 117.00 L163.50 121.00 L170.00 127.50 L176.00 130.50 L188.00 130.50 L189.00 131.50 L192.00 131.50 L194.00 132.50 L197.50 136.00 L199.50 140.00 L199.50 146.00 L197.50 150.00 L195.00 152.50 L191.00 154.50 L164.00 154.50 L160.50 158.00 L160.50 161.00 L161.50 163.00 L164.00 164.50 L191.00 164.50 L192.00 163.50 L195.00 163.50 L199.00 161.50 L205.50 155.00 L205.50 154.00 L207.50 152.00 L207.50 150.00 L208.50 149.00 L208.50 146.00 L209.50 145.00 L209.50 141.00 L208.50 140.00 L208.50 137.00 L207.50 136.00 L207.50 134.00 L204.50 130.00 L204.50 129.00 L202.00 126.50 L201.00 126.50 L199.00 124.50 L193.00 121.50 L180.00 121.50 L179.00 120.50 L177.00 120.50 L175.00 119.50 L170.50 114.00 L170.50 105.00 L171.50 103.00 L175.00 99.50 L179.00 97.50 L206.00 97.50 L209.50 93.00 L208.50 90.00 L205.00 87.50 Z"/>
    <path d="M49.00 90.50 L46.50 92.00 L45.50 95.00 L46.50 96.00 L46.50 98.00 L48.50 101.00 L49.50 106.00 L51.50 109.00 L51.50 111.00 L53.50 114.00 L53.50 116.00 L55.50 119.00 L55.50 121.00 L57.50 124.00 L58.50 129.00 L61.50 135.00 L61.50 163.00 L64.00 166.50 L66.00 167.50 L68.00 167.50 L71.50 164.00 L71.50 135.00 L73.50 132.00 L73.50 130.00 L77.50 122.00 L78.50 117.00 L80.50 114.00 L80.50 112.00 L82.50 109.00 L82.50 107.00 L86.50 99.00 L87.50 94.00 L85.00 90.50 L82.00 90.50 L79.50 93.00 L77.50 97.00 L77.50 99.00 L76.50 100.00 L75.50 105.00 L73.50 108.00 L73.50 110.00 L72.50 111.00 L71.50 116.00 L69.50 120.00 L66.00 121.50 L64.00 120.50 L62.50 118.00 L62.50 116.00 L61.50 115.00 L60.50 110.00 L58.50 107.00 L58.50 105.00 L57.50 104.00 L57.50 102.00 L56.50 101.00 L56.50 99.00 L54.50 96.00 L54.50 94.00 L53.50 92.00 L51.00 90.50 Z"/>
    <path d="M179.00 191.50 L173.00 194.50 L168.50 199.00 L168.50 200.00 L166.50 202.00 L166.50 204.00 L165.50 205.00 L165.50 209.00 L164.50 210.00 L165.50 212.00 L165.50 216.00 L167.50 220.00 L169.50 222.00 L169.50 223.00 L175.00 227.50 L177.00 228.50 L180.00 228.50 L181.00 229.50 L187.00 229.50 L188.00 228.50 L193.00 227.50 L195.00 225.50 L196.00 225.50 L200.50 220.00 L202.50 216.00 L202.50 211.00 L203.50 210.00 L202.50 209.00 L202.50 205.00 L199.50 199.00 L195.00 194.50 L189.00 191.50 Z"/>
  </g>
  <g id="white" fill="#e7ecf1" fill-rule="evenodd">
    <path d="M114.00 88.50 L139.00 88.50 L141.50 91.00 L141.50 94.00 L139.00 96.50 L120.00 96.50 L118.00 97.50 L116.50 100.00 L116.50 119.00 L119.00 121.50 L138.00 121.50 L141.50 124.00 L141.50 128.00 L139.00 130.50 L119.00 130.50 L116.50 133.00 L116.50 153.00 L120.00 155.50 L136.00 155.50 L138.50 158.00 L138.50 162.00 L137.00 163.50 L114.00 163.50 L109.50 160.00 L107.50 156.00 L107.50 96.00 L109.50 92.00 Z"/>
    <path d="M177.00 88.50 L206.00 88.50 L208.50 91.00 L208.50 94.00 L207.00 96.50 L182.00 96.50 L181.00 97.50 L178.00 97.50 L174.00 99.50 L172.50 101.00 L169.50 107.00 L169.50 112.00 L171.50 116.00 L176.00 120.50 L178.00 121.50 L190.00 121.50 L191.00 122.50 L194.00 122.50 L195.00 123.50 L197.00 123.50 L199.00 125.50 L200.00 125.50 L205.50 131.00 L207.50 135.00 L207.50 137.00 L208.50 138.00 L208.50 148.00 L207.50 149.00 L207.50 151.00 L206.50 153.00 L201.00 159.50 L193.00 163.50 L163.00 163.50 L160.50 160.00 L161.50 157.00 L163.00 155.50 L190.00 155.50 L194.00 153.50 L198.50 149.00 L199.50 147.00 L199.50 139.00 L197.50 135.00 L196.00 133.50 L190.00 130.50 L178.00 130.50 L177.00 129.50 L175.00 129.50 L169.00 126.50 L165.50 123.00 L165.50 122.00 L163.50 120.00 L161.50 116.00 L161.50 112.00 L160.50 111.00 L160.50 108.00 L161.50 107.00 L161.50 103.00 L164.50 97.00 L170.00 91.50 L174.00 89.50 L176.00 89.50 Z"/>
    <path d="M48.00 91.50 L52.00 91.50 L53.50 93.00 L54.50 95.00 L54.50 97.00 L55.50 98.00 L55.50 100.00 L57.50 103.00 L57.50 105.00 L58.50 106.00 L59.50 111.00 L61.50 114.00 L62.50 119.00 L65.00 121.50 L68.00 121.50 L70.50 119.00 L71.50 117.00 L71.50 115.00 L72.50 114.00 L72.50 112.00 L74.50 109.00 L74.50 107.00 L75.50 106.00 L76.50 101.00 L78.50 98.00 L79.50 93.00 L81.00 91.50 L85.00 91.50 L86.50 93.00 L86.50 97.00 L85.50 98.00 L85.50 100.00 L83.50 103.00 L82.50 108.00 L80.50 111.00 L80.50 113.00 L78.50 116.00 L78.50 118.00 L76.50 121.00 L76.50 123.00 L74.50 126.00 L73.50 131.00 L70.50 137.00 L70.50 165.00 L69.00 166.50 L65.00 166.50 L62.50 164.00 L62.50 136.00 L59.50 130.00 L59.50 128.00 L57.50 125.00 L57.50 123.00 L55.50 120.00 L55.50 118.00 L53.50 115.00 L53.50 113.00 L50.50 107.00 L50.50 105.00 L48.50 102.00 L48.50 100.00 L46.50 97.00 L46.50 93.00 Z"/>
    <path d="M182.00 191.50 L186.00 191.50 L187.00 192.50 L190.00 192.50 L194.00 194.50 L200.50 201.00 L201.50 203.00 L201.50 205.00 L202.50 206.00 L202.50 214.00 L201.50 215.00 L201.50 217.00 L199.50 221.00 L195.00 225.50 L189.00 228.50 L179.00 228.50 L178.00 227.50 L176.00 227.50 L174.00 225.50 L173.00 225.50 L168.50 221.00 L166.50 217.00 L166.50 215.00 L165.50 214.00 L165.50 206.00 L166.50 205.00 L166.50 203.00 L167.50 201.00 L174.00 194.50 L178.00 192.50 L181.00 192.50 Z"/>
  </g>
</svg>
